<svg width="795" height="616" viewBox="0 0 795 616" fill="none" xmlns="http://www.w3.org/2000/svg">
<g id="bike" clip-path="url(#clip0_1_2)">
<g id="building-left">
<path id="Vector" d="M291.904 248.592V234.674C291.904 231.487 291.277 228.332 290.057 225.387C288.838 222.443 287.05 219.768 284.797 217.515C282.544 215.261 279.868 213.474 276.924 212.254C273.98 211.035 270.824 210.407 267.638 210.407V196.805H273.288C275.759 196.805 278.128 195.824 279.875 194.077C281.622 192.33 282.603 189.961 282.603 187.491C282.603 185.02 281.622 182.651 279.875 180.904C278.128 179.157 275.759 178.176 273.288 178.176H267.638V174.007H264.783V178.176H257.763C255.293 178.176 252.924 179.157 251.177 180.904C249.43 182.651 248.448 185.02 248.448 187.491C248.448 189.961 249.43 192.33 251.177 194.077C252.924 195.824 255.293 196.805 257.763 196.805H264.783V210.407H246.982C245.289 210.407 243.613 210.74 242.049 211.388C240.485 212.036 239.065 212.985 237.868 214.182C236.671 215.379 235.721 216.8 235.074 218.364C234.426 219.928 234.092 221.604 234.092 223.296V248.592H229.984C217.161 248.592 204.863 253.686 195.795 262.753C186.728 271.821 181.633 284.119 181.633 296.942V328.271C173.507 331.772 166.425 337.317 161.076 344.366C155.727 351.415 152.294 359.729 151.11 368.498H124.673V347.086H111.826V334.977H116.487C118.957 334.977 121.327 333.996 123.074 332.249C124.82 330.502 125.802 328.133 125.802 325.662C125.802 323.192 124.82 320.822 123.074 319.075C121.327 317.328 118.957 316.347 116.487 316.347H111.826V313.541H108.971V316.347H100.962C98.4916 316.347 96.1222 317.328 94.3754 319.075C92.6285 320.822 91.6471 323.192 91.6471 325.662C91.6471 328.133 92.6285 330.502 94.3754 332.249C96.1222 333.996 98.4916 334.977 100.962 334.977H108.971V347.124C105.691 347.314 102.607 348.751 100.352 351.14C98.0963 353.529 96.839 356.69 96.8375 359.975V368.575C84.496 369.258 72.8846 374.641 64.3892 383.62C55.8938 392.598 51.1594 404.488 51.1588 416.849V614.734H315.815V272.501C315.815 269.362 315.196 266.252 313.995 263.351C312.793 260.451 311.032 257.815 308.811 255.595C306.591 253.374 303.955 251.613 301.054 250.412C298.154 249.21 295.044 248.592 291.904 248.592Z" fill="url(#paint0_linear_1_2)"/>
<path id="Vector_2" d="M116.108 454.145H133.951V439.871H116.108V454.145Z" fill="white"/>
<path id="Vector_3" d="M86.8453 454.145H104.689V439.871H86.8453V454.145Z" fill="white"/>
<path id="Vector_4" d="M116.108 490.546H133.951V476.271H116.108V490.546Z" fill="white"/>
<path id="Vector_5" d="M86.8453 490.546H104.689V476.271H86.8453V490.546Z" fill="white"/>
<path id="Vector_6" d="M116.108 526.946H133.951V512.671H116.108V526.946Z" fill="white"/>
<path id="Vector_7" d="M86.8453 526.946H104.689V512.671H86.8453V526.946Z" fill="white"/>
<path id="Vector_8" d="M86.8453 563.346H104.689V549.071H86.8453V563.346Z" fill="white"/>
<path id="Vector_9" d="M86.8453 599.746H104.689V585.471H86.8453V599.746Z" fill="white"/>
<path id="Vector_10" d="M219.818 413.82H277.63V409.537H219.818V413.82Z" fill="white"/>
<path id="Vector_11" d="M219.818 440.228H277.63V435.945H219.818V440.228Z" fill="white"/>
<path id="Vector_12" d="M219.818 466.636H277.63V462.353H219.818V466.636Z" fill="white"/>
<path id="Vector_13" d="M254.077 232.533H271.92V218.258H254.077V232.533Z" fill="white"/>
</g>
<g id="building-right">
<path id="Vector_14" d="M555.997 248.592V234.674C555.997 231.487 555.37 228.332 554.15 225.387C552.931 222.443 551.143 219.768 548.89 217.515C546.636 215.261 543.961 213.474 541.017 212.254C538.073 211.035 534.917 210.407 531.731 210.407V196.805H537.381C539.852 196.805 542.221 195.824 543.968 194.077C545.715 192.33 546.696 189.961 546.696 187.491C546.696 185.02 545.715 182.651 543.968 180.904C542.221 179.157 539.852 178.176 537.381 178.176H531.731V174.007H528.876V178.176H521.856C519.386 178.176 517.016 179.157 515.27 180.904C513.523 182.651 512.541 185.02 512.541 187.491C512.541 189.961 513.523 192.33 515.27 194.077C517.016 195.824 519.386 196.805 521.856 196.805H528.876V210.407H511.075C509.382 210.407 507.706 210.74 506.142 211.388C504.578 212.036 503.157 212.985 501.961 214.182C500.764 215.379 499.814 216.8 499.166 218.364C498.519 219.928 498.185 221.604 498.185 223.296V248.592H494.077C481.254 248.592 468.956 253.686 459.888 262.753C450.82 271.821 445.726 284.119 445.726 296.942V328.271C437.6 331.772 430.518 337.317 425.169 344.366C419.82 351.415 416.387 359.729 415.203 368.498H388.766V347.086H375.919V334.977H380.58C383.05 334.977 385.42 333.996 387.166 332.249C388.913 330.502 389.895 328.133 389.895 325.662C389.895 323.192 388.913 320.822 387.166 319.075C385.42 317.328 383.05 316.347 380.58 316.347H375.919V313.541H373.064V316.347H365.055C362.584 316.347 360.215 317.328 358.468 319.075C356.721 320.822 355.74 323.192 355.74 325.662C355.74 328.133 356.721 330.502 358.468 332.249C360.215 333.996 362.584 334.977 365.055 334.977H373.064V347.124C369.784 347.314 366.7 348.751 364.445 351.14C362.189 353.529 360.932 356.69 360.93 359.975V368.575C348.589 369.258 336.977 374.641 328.482 383.62C319.987 392.598 315.252 404.488 315.252 416.849V614.734H579.907V272.501C579.907 269.362 579.289 266.252 578.087 263.351C576.886 260.451 575.125 257.815 572.904 255.595C570.684 253.374 568.048 251.613 565.147 250.412C562.246 249.21 559.137 248.592 555.997 248.592Z" fill="url(#paint1_linear_1_2)"/>
<path id="Vector_15" d="M369.044 490.546H386.887V476.271H369.044V490.546Z" fill="white"/>
<path id="Vector_16" d="M339.781 490.546H357.624V476.271H339.781V490.546Z" fill="white"/>
<path id="Vector_17" d="M369.044 526.946H386.887V512.671H369.044V526.946Z" fill="white"/>
<path id="Vector_18" d="M339.781 526.946H357.624V512.671H339.781V526.946Z" fill="white"/>
<path id="Vector_19" d="M369.044 563.346H386.887V549.071H369.044V563.346Z" fill="white"/>
<path id="Vector_20" d="M339.781 563.346H357.624V549.071H339.781V563.346Z" fill="white"/>
<path id="Vector_21" d="M369.044 599.746H386.887V585.471H369.044V599.746Z" fill="white"/>
<path id="Vector_22" d="M339.781 599.746H357.624V585.471H339.781V599.746Z" fill="white"/>
<path id="Vector_23" d="M568.742 279.087H524.791V288.402H568.742V279.087Z" fill="white"/>
<path id="Vector_24" d="M568.742 307.032H524.791V316.347H568.742V307.032Z" fill="white"/>
<path id="Vector_25" d="M568.742 334.977H524.791V344.292H568.742V334.977Z" fill="white"/>
<path id="Vector_26" d="M568.742 362.922H524.791V372.237H568.742V362.922Z" fill="white"/>
<path id="Vector_27" d="M568.742 390.867H524.791V400.182H568.742V390.867Z" fill="white"/>
<path id="Vector_28" d="M568.742 418.811H524.791V428.126H568.742V418.811Z" fill="white"/>
</g>
<g id="woman">
<path id="Vector_29" d="M314.539 471.759L324.637 480.21L362.762 444.414L347.858 431.943L314.539 471.759Z" fill="#FFB6B6"/>
<path id="Vector_30" d="M344.414 468.901L323.029 454.141L379.335 364.871C338.525 341.151 310.461 312.215 287.561 280.43C279.779 269.703 275.035 257.22 285.892 249.173C286.399 248.797 286.92 248.44 287.455 248.104C299.835 240.39 295.816 251.951 312.786 246.273L328.119 262.629L361.246 294.863L417.752 330.933C429.116 338.187 432.269 353.445 424.795 365.013C424.4 365.624 423.98 366.217 423.534 366.793L344.414 468.901Z" fill="#2F2E41"/>
<path id="Vector_31" d="M315.818 464.876L333.524 477.982L327.477 485.207L334.243 509.697C334.578 510.906 334.517 512.191 334.069 513.363C333.621 514.535 332.811 515.534 331.756 516.213C330.7 516.892 329.456 517.216 328.203 517.138C326.951 517.059 325.756 516.583 324.794 515.777L304.718 498.976L307.238 488.933L299.906 494.949L292.337 488.614L315.818 464.876Z" fill="#2F2E41"/>
<path id="Vector_32" d="M291.107 375.68L181.899 414.733L185.064 423.582L294.272 384.529L291.107 375.68Z" fill="#3F3D56"/>
<path id="Vector_33" d="M316.647 526.751L288.192 502.181C286.212 500.47 284.993 498.043 284.802 495.434C284.611 492.824 285.465 490.245 287.175 488.265C288.885 486.284 291.312 485.064 293.921 484.872C296.531 484.68 299.11 485.533 301.091 487.242L329.546 511.812C330.528 512.659 331.333 513.69 331.915 514.848C332.498 516.006 332.847 517.268 332.942 518.561C333.037 519.853 332.876 521.152 332.469 522.383C332.062 523.614 331.416 524.752 330.569 525.733C329.722 526.714 328.69 527.519 327.531 528.101C326.373 528.683 325.112 529.032 323.819 529.126C322.526 529.221 321.227 529.059 319.997 528.652C318.766 528.244 317.628 527.598 316.647 526.751V526.751Z" fill="#3F3D56"/>
<path id="Vector_34" d="M478.29 242.894C476.492 243.514 474.58 243.733 472.688 243.534C470.796 243.335 468.971 242.724 467.341 241.744C465.71 240.763 464.315 239.437 463.253 237.859C462.191 236.281 461.487 234.489 461.193 232.61L359.542 206.435L376.12 189.041L472.936 217.469C476.126 217.183 479.31 218.077 481.885 219.982C484.459 221.886 486.246 224.669 486.906 227.803C487.566 230.937 487.053 234.205 485.466 236.986C483.878 239.767 481.325 241.869 478.29 242.894H478.29Z" fill="#FFB6B6"/>
<path id="Vector_35" d="M323.868 121.362C323.868 121.362 307.339 123.277 307.636 142.324C307.933 161.37 348.45 204.759 354.771 211.948C361.092 219.137 424.175 222.81 424.175 222.81L443.881 205.482L385.451 185.796L323.868 121.362Z" fill="#6C63FF"/>
<path id="Vector_36" d="M290.341 210.76L286.613 228.249C286.613 228.249 279.827 242.805 281.143 246.694C282.448 250.562 341.185 271.586 341.185 271.586C341.185 271.586 346.217 245.361 354.615 227.671L290.341 210.76Z" fill="#FFB6B6"/>
<path id="Vector_37" d="M478.583 484.301L444.661 500.508C442.3 501.636 439.587 501.78 437.119 500.908C434.651 500.036 432.631 498.219 431.503 495.857C430.374 493.496 430.23 490.783 431.102 488.315C431.975 485.847 433.791 483.827 436.153 482.699L470.075 466.492C472.437 465.364 475.15 465.22 477.617 466.092C480.085 466.964 482.105 468.781 483.234 471.142C484.362 473.504 484.506 476.217 483.634 478.685C482.762 481.152 480.945 483.173 478.583 484.301V484.301Z" fill="#3F3D56"/>
<path id="Vector_38" d="M370.937 529.184C380.568 529.184 388.375 521.377 388.375 511.746C388.375 502.115 380.568 494.308 370.937 494.308C361.307 494.308 353.5 502.115 353.5 511.746C353.5 521.377 361.307 529.184 370.937 529.184Z" fill="#3F3D56"/>
<path id="Vector_39" d="M170.848 512.56L163.99 506.132L286.394 375.554L504.831 310.179L613.24 500.44L605.074 505.094L500.365 321.327L291.518 383.831L170.848 512.56Z" fill="#3F3D56"/>
<path id="Vector_40" d="M356.128 506.631H263.765V516.03H356.128V506.631Z" fill="#3F3D56"/>
<path id="Vector_41" d="M293.655 330.553H284.257V379.692H293.655V330.553Z" fill="#3F3D56"/>
<path id="Vector_42" d="M476.408 219.363L467.464 222.251L498.126 317.197L507.069 314.309L476.408 219.363Z" fill="#3F3D56"/>
<path id="Vector_43" d="M292.717 373.51L284.607 378.26L361.676 509.842L369.786 505.091L292.717 373.51Z" fill="#3F3D56"/>
<path id="Vector_44" d="M546.354 392.674L380.945 505.469L386.24 513.234L551.649 400.439L546.354 392.674Z" fill="#3F3D56"/>
<path id="Vector_45" d="M306.989 336.41H269.395C266.777 336.41 264.267 335.371 262.416 333.52C260.566 331.669 259.526 329.159 259.526 326.542C259.526 323.925 260.566 321.414 262.416 319.564C264.267 317.713 266.777 316.673 269.395 316.673H306.989C309.607 316.673 312.117 317.713 313.967 319.564C315.818 321.414 316.858 323.925 316.858 326.542C316.858 329.159 315.818 331.669 313.967 333.52C312.117 335.371 309.607 336.41 306.989 336.41V336.41Z" fill="#6C63FF"/>
<path id="Vector_46" d="M490.264 230.205H452.669C450.051 230.205 447.541 229.166 445.691 227.315C443.84 225.464 442.8 222.954 442.8 220.337C442.8 217.719 443.84 215.209 445.691 213.359C447.541 211.508 450.051 210.468 452.669 210.468H490.264C492.881 210.468 495.391 211.508 497.242 213.359C499.092 215.209 500.132 217.719 500.132 220.337C500.132 222.954 499.092 225.464 497.242 227.315C495.391 229.166 492.881 230.205 490.264 230.205Z" fill="#6C63FF"/>
<path id="Vector_47" d="M770.777 614.192C770.778 614.339 770.749 614.485 770.693 614.621C770.637 614.757 770.555 614.88 770.451 614.984C770.347 615.088 770.223 615.171 770.087 615.227C769.952 615.283 769.806 615.311 769.659 615.311H25.0111C24.7144 615.311 24.4299 615.193 24.2202 614.983C24.0104 614.773 23.8926 614.489 23.8926 614.192C23.8926 613.896 24.0104 613.611 24.2202 613.401C24.4299 613.192 24.7144 613.074 25.0111 613.074H769.659C769.806 613.073 769.952 613.102 770.087 613.158C770.223 613.214 770.347 613.297 770.451 613.4C770.555 613.504 770.637 613.628 770.693 613.764C770.749 613.9 770.778 614.045 770.777 614.192V614.192Z" fill="#CCCCCC"/>
<path id="Vector_48" d="M350.786 107.373C365.917 104.8 376.097 90.4488 373.525 75.3181C370.952 60.1873 356.601 50.0067 341.47 52.5791C326.34 55.1516 316.159 69.5028 318.731 84.6336C321.304 99.7643 335.655 109.945 350.786 107.373Z" fill="#FFB6B6"/>
<path id="Vector_49" d="M518.14 345.834L486.754 279.582L487.179 279.381C489.354 278.351 491.711 277.759 494.115 277.639C496.518 277.52 498.922 277.875 501.189 278.684C503.455 279.493 505.54 280.741 507.325 282.356C509.109 283.972 510.557 285.923 511.588 288.098L527.28 321.224C528.311 323.399 528.903 325.756 529.023 328.159C529.142 330.563 528.787 332.967 527.978 335.234C527.169 337.5 525.921 339.585 524.305 341.369C522.69 343.154 520.739 344.602 518.564 345.632L518.14 345.834Z" fill="#3F3D56"/>
<path id="Vector_50" d="M422.2 357.479C418.248 357.468 414.406 356.183 411.244 353.814C408.081 351.445 405.768 348.118 404.647 344.329L404.514 343.878L474.827 323.132L474.96 323.583C475.641 325.891 475.861 328.311 475.607 330.704C475.353 333.098 474.63 335.418 473.479 337.532C472.328 339.646 470.773 341.512 468.9 343.025C467.028 344.537 464.877 345.666 462.568 346.347L427.412 356.72C425.72 357.222 423.964 357.477 422.2 357.479V357.479Z" fill="#3F3D56"/>
<path id="Vector_51" d="M431.237 471.655L444.031 468.499L438.117 416.527L419.233 421.187L431.237 471.655Z" fill="#FFB6B6"/>
<path id="Vector_52" d="M425.177 456.741L445.145 447.438L448.608 456.199L473.357 461.942C474.58 462.226 475.679 462.893 476.496 463.846C477.312 464.798 477.803 465.987 477.896 467.239C477.989 468.49 477.68 469.738 477.013 470.802C476.347 471.865 475.357 472.687 474.19 473.148L449.844 482.771L442.222 475.763L444.009 485.077L434.83 488.705L425.177 456.741Z" fill="#2F2E41"/>
<path id="Vector_53" d="M444.749 424.824L417.468 441.184L388.372 338.426C341.171 338.024 297.529 332.739 261.896 316.462C249.823 310.996 244.453 296.539 249.901 284.172C250.156 283.594 250.432 283.027 250.73 282.47C257.666 269.638 271.113 262.102 283.045 248.767L342.234 270.62L337.993 286.559L404.946 289.919C418.41 290.595 428.705 302.29 427.939 316.041C427.898 316.767 427.827 317.491 427.724 318.212L444.749 424.824Z" fill="#2F2E41"/>
<path id="Vector_54" d="M329.012 107.104L347.201 116.615C348.206 117.016 349.061 117.721 349.646 118.63C350.232 119.54 350.519 120.61 350.467 121.691L355.205 140.65L371.876 175.936C371.876 175.936 376.22 194.715 367.93 212.446C359.641 230.178 341.294 274.379 341.294 274.379C329.329 303.039 231.111 280.907 256.706 256.522C259.752 253.62 276.869 229.112 283.132 227.703L298.5 139.764C299.274 135.121 301.067 130.707 303.748 126.839C306.43 122.97 309.934 119.743 314.01 117.389C316.473 115.997 318.755 115.173 320.319 115.593C323.884 116.424 325.569 108.35 329.012 107.104Z" fill="#6C63FF"/>
<path id="Vector_55" d="M486.984 223.626C485.331 224.565 483.491 225.131 481.594 225.283C479.698 225.434 477.792 225.168 476.01 224.503C474.227 223.839 472.612 222.791 471.279 221.435C469.945 220.078 468.925 218.446 468.29 216.653L363.563 209.57L376.668 189.43L477.057 199.615C480.14 198.748 483.434 199.043 486.315 200.443C489.195 201.843 491.462 204.251 492.686 207.211C493.909 210.17 494.005 213.476 492.954 216.501C491.903 219.527 489.779 222.062 486.984 223.626V223.626Z" fill="#FFB6B6"/>
<path id="Vector_56" d="M312.887 132.486C312.887 132.486 296.991 137.4 300.777 156.069C304.563 174.738 352.352 209.958 359.885 215.865C367.417 221.772 430.103 213.81 430.103 213.81L446.296 193.162L385.246 184.529L312.887 132.486Z" fill="#6C63FF"/>
<path id="Vector_57" d="M375.77 70.7823C371.574 72.8494 366.823 69.8534 363.151 66.8739L364.465 67.9853C358.095 74.3117 355.179 83.3494 353.8 92.2308C352.42 101.103 352.349 110.162 350.587 118.975C348.823 127.779 345.068 136.645 337.94 142.099C328.39 149.405 315.111 149.079 303.278 146.991C303.12 146.961 302.973 146.938 302.816 146.908C305.899 137.7 307.091 127.963 306.319 118.283C303.254 128.023 297.955 136.913 290.846 144.243C282.993 142.168 275.321 139.462 267.905 136.15C263.107 134.001 257.933 131.048 256.555 125.972C255.175 120.934 258.206 115.605 262.299 112.373C266.393 109.141 271.44 107.425 276.117 105.104C280.787 102.795 285.398 99.5225 287.226 94.6354C291.445 83.3932 278.967 70.6709 283.665 59.6141C285.982 54.1769 291.764 51.1729 297.203 48.8467C305.506 45.3049 314.039 42.3285 322.744 39.9378C330.386 37.8378 338.371 36.1848 346.19 37.4294C354.009 38.6741 361.705 43.3431 364.591 50.7273C369.295 52.2633 374.29 53.9977 377.339 57.9124C380.386 61.8178 380.213 68.5969 375.77 70.7823Z" fill="#2F2E41"/>
<path id="Vector_58" d="M526.127 322.27C531.726 320.2 533.711 311.615 530.562 303.095C527.412 294.575 520.32 289.346 514.721 291.416C509.122 293.485 507.136 302.07 510.286 310.591C513.436 319.111 520.528 324.34 526.127 322.27Z" fill="#6C63FF"/>
</g>
<g id="left-wheel">
<line id="Line 1" x1="115.422" y1="431.732" x2="167.422" y2="513.732" stroke="black"/>
<line id="Line 2" x1="78.8387" y1="543.527" x2="166.839" y2="513.527" stroke="black"/>
<line id="Line 3" x1="140.518" y1="606.865" x2="166.518" y2="513.865" stroke="black"/>
<line id="Line 4" x1="232.646" y1="580.354" x2="166.646" y2="514.354" stroke="black"/>
<line id="Line 5" x1="260.13" y1="489.483" x2="167.13" y2="514.483" stroke="black"/>
<line id="Line 6" x1="213.436" y1="432.245" x2="167.436" y2="514.245" stroke="black"/>
<path id="Vector_59" d="M166.986 615.132C146.91 615.132 127.285 609.178 110.593 598.025C93.9001 586.871 80.8898 571.018 73.2071 552.471C65.5244 533.923 63.5142 513.513 67.4309 493.823C71.3475 474.133 81.015 456.046 95.2108 441.851C109.407 427.655 127.493 417.987 147.183 414.071C166.874 410.154 187.283 412.164 205.831 419.847C224.378 427.53 240.232 440.54 251.385 457.232C262.539 473.925 268.492 493.55 268.492 513.626C268.462 540.538 257.757 566.338 238.728 585.368C219.699 604.397 193.898 615.101 166.986 615.132ZM166.986 421.519C148.769 421.519 130.961 426.921 115.814 437.042C100.667 447.163 88.8617 461.548 81.8904 478.378C74.919 495.208 73.095 513.728 76.649 531.595C80.2029 549.462 88.9753 565.874 101.857 578.755C114.738 591.637 131.15 600.409 149.017 603.963C166.884 607.517 185.404 605.693 202.234 598.722C219.064 591.75 233.45 579.945 243.57 564.798C253.691 549.651 259.093 531.843 259.093 513.626C259.066 489.206 249.353 465.794 232.085 448.527C214.818 431.259 191.406 421.547 166.986 421.519Z" fill="#3F3D56"/>
<path id="Vector_60" d="M166.986 528.664C175.291 528.664 182.024 521.931 182.024 513.626C182.024 505.321 175.291 498.588 166.986 498.588C158.681 498.588 151.948 505.321 151.948 513.626C151.948 521.931 158.681 528.664 166.986 528.664Z" fill="#3F3D56"/>
</g>
<g id="right-wheel">
<line id="Line 1_2" x1="649.345" y1="423.054" x2="612.736" y2="512.986" stroke="black"/>
<line id="Line 2_2" x1="537.068" y1="458.13" x2="612.565" y2="512.392" stroke="black"/>
<line id="Line 3_2" x1="521.275" y1="545.117" x2="612.103" y2="512.327" stroke="black"/>
<line id="Line 4_2" x1="596.325" y1="604.765" x2="611.78" y2="512.715" stroke="black"/>
<line id="Line 5_2" x1="686.281" y1="574.418" x2="611.955" y2="513.184" stroke="black"/>
<line id="Line 6_2" x1="705.802" y1="503.176" x2="612.327" y2="513.295" stroke="black"/>
<path id="Vector_61" d="M529.901 571.47C518.251 555.12 511.712 535.682 511.109 515.615C510.507 495.548 515.869 475.753 526.516 458.734C537.164 441.714 552.62 428.234 570.928 419.998C589.237 411.762 609.577 409.141 629.376 412.465C649.175 415.789 667.543 424.909 682.159 438.673C696.774 452.436 706.98 470.225 711.486 489.788C715.991 509.352 714.595 529.813 707.472 548.583C700.349 567.353 687.82 583.589 671.47 595.238C649.535 610.83 622.311 617.083 595.771 612.627C569.23 608.172 545.541 593.37 529.901 571.47ZM687.584 459.123C677.013 444.286 662.28 432.918 645.248 426.454C628.216 419.991 609.65 418.724 591.898 422.812C574.145 426.901 558.004 436.161 545.515 449.424C533.026 462.686 524.75 479.353 521.734 497.319C518.717 515.285 521.096 533.741 528.57 550.355C536.043 566.968 548.275 580.993 563.719 590.655C579.162 600.316 597.124 605.182 615.333 604.635C633.542 604.088 651.18 598.155 666.016 587.584C685.888 573.391 699.319 551.896 703.363 527.813C707.406 503.73 701.731 479.027 687.584 459.123Z" fill="#3F3D56"/>
<path id="Vector_62" d="M600.322 521.295C605.142 528.059 614.532 529.636 621.296 524.816C628.06 519.997 629.636 510.607 624.817 503.843C619.998 497.079 610.608 495.503 603.844 500.322C597.08 505.141 595.503 514.531 600.322 521.295Z" fill="#3F3D56"/>
</g>
<path id="hut" d="M341.991 14.9585C331.677 4.72959 309.909 4.98626 299.642 20.44C298.108 25.3048 293.939 35.6637 289.534 38.1814C284.028 41.3286 268.152 42.601 277.094 53.0946C286.036 63.5881 293.715 57.6382 304.499 56.1554C315.283 54.6726 328.64 49.118 351.209 42.9798C373.777 36.8416 376.123 37.5813 376.364 30.6812C376.606 23.7811 369.555 23.6504 360.53 25.688C351.506 27.7255 352.306 25.1874 341.991 14.9585Z" fill="#FC5454" stroke="#FC5454"/>
</g>
<defs>
<linearGradient id="paint0_linear_1_2" x1="183.487" y1="174.007" x2="183.487" y2="614.734" gradientUnits="userSpaceOnUse">
<stop stop-color="#C2CE77"/>
<stop offset="1" stop-color="#555F1A" stop-opacity="0"/>
</linearGradient>
<linearGradient id="paint1_linear_1_2" x1="447.58" y1="174.007" x2="447.58" y2="614.734" gradientUnits="userSpaceOnUse">
<stop stop-color="#C2CE77"/>
<stop offset="1" stop-color="#555F1A" stop-opacity="0"/>
</linearGradient>
<clipPath id="clip0_1_2">
<rect width="794.67" height="615.311" fill="white"/>
</clipPath>
</defs>
</svg>
